<svg width="20" height="20" viewBox="0 0 20 20" fill="none" xmlns="http://www.w3.org/2000/svg">
<path fill-rule="evenodd" clip-rule="evenodd" d="M10.0004 -0.0010376C7.28442 -0.0010376 6.94356 0.0108385 5.87683 0.0593824C4.81218 0.108136 4.08547 0.276689 3.4496 0.523995C2.79185 0.779428 2.23389 1.12112 1.67803 1.67719C1.12174 2.23306 0.780053 2.79101 0.523787 3.44855C0.275855 4.08463 0.107094 4.81155 0.0591745 5.87579C0.0114632 6.94252 -0.0010376 7.28359 -0.0010376 9.99959C-0.0010376 12.7156 0.0110464 13.0554 0.0593824 14.1221C0.108344 15.1868 0.276896 15.9135 0.523995 16.5494C0.779636 17.2071 1.12132 17.7651 1.6774 18.3209C2.23306 18.8772 2.79101 19.2197 3.44835 19.4752C4.08463 19.7225 4.81155 19.891 5.876 19.9398C6.94273 19.9883 7.28338 20.0002 9.99917 20.0002C12.7154 20.0002 13.0552 19.9883 14.1219 19.9398C15.1866 19.891 15.9141 19.7225 16.5504 19.4752C17.208 19.2197 17.7651 18.8772 18.3207 18.3209C18.877 17.7651 19.2187 17.2071 19.475 16.5496C19.7208 15.9135 19.8896 15.1866 19.9396 14.1223C19.9875 13.0556 20 12.7156 20 9.99959C20 7.28359 19.9875 6.94273 19.9396 5.876C19.8896 4.81135 19.7208 4.08463 19.475 3.44876C19.2187 2.79101 18.877 2.23306 18.3207 1.67719C17.7645 1.12091 17.2082 0.77922 16.5498 0.523995C15.9123 0.276689 15.1851 0.108136 14.1205 0.0593824C13.0537 0.0108385 12.7141 -0.0010376 9.9973 -0.0010376H10.0004ZM9.10328 1.80116C9.27743 1.80089 9.46478 1.80097 9.66694 1.80106H9.66711L10.0004 1.80116C12.6706 1.80116 12.9871 1.81074 14.0415 1.85866C15.0166 1.90325 15.5458 2.06618 15.8983 2.20306C16.365 2.38432 16.6977 2.601 17.0475 2.95102C17.3976 3.30104 17.6142 3.6344 17.7959 4.10109C17.9328 4.4532 18.0959 4.9824 18.1403 5.95746C18.1882 7.01169 18.1986 7.32838 18.1986 9.9973C18.1986 12.6662 18.1882 12.9829 18.1403 14.0371C18.0957 15.0122 17.9328 15.5414 17.7959 15.8935C17.6146 16.3602 17.3976 16.6925 17.0475 17.0423C16.6975 17.3923 16.3652 17.609 15.8983 17.7903C15.5462 17.9278 15.0166 18.0903 14.0415 18.1349C12.9873 18.1828 12.6706 18.1932 10.0004 18.1932C7.33005 18.1932 7.01357 18.1828 5.95934 18.1349C4.98427 18.0899 4.45507 17.927 4.10234 17.7901C3.63565 17.6088 3.30229 17.3921 2.95227 17.0421C2.60225 16.6921 2.38557 16.3596 2.20389 15.8927C2.06701 15.5406 1.90387 15.0114 1.8595 14.0363C1.81158 12.9821 1.80199 12.6654 1.80199 9.9948C1.80199 7.32421 1.81158 7.00919 1.8595 5.95496C1.90408 4.9799 2.06701 4.4507 2.20389 4.09818C2.38515 3.63148 2.60225 3.29813 2.95227 2.94811C3.30229 2.59808 3.63565 2.3814 4.10234 2.19973C4.45487 2.06222 4.98427 1.89971 5.95934 1.85491C6.88189 1.81324 7.23942 1.80074 9.10328 1.79866V1.80116ZM15.3387 3.46168C14.6761 3.46168 14.1386 3.99859 14.1386 4.66134C14.1386 5.32388 14.6761 5.86141 15.3387 5.86141C16.0012 5.86141 16.5387 5.32388 16.5387 4.66134C16.5387 3.9988 16.0012 3.46126 15.3387 3.46126V3.46168ZM4.86468 9.99959C4.86468 7.16344 7.16409 4.86396 10.0002 4.86385C12.8364 4.86385 15.1353 7.16337 15.1353 9.99959C15.1353 12.8358 12.8366 15.1343 10.0004 15.1343C7.1642 15.1343 4.86468 12.8358 4.86468 9.99959ZM13.334 9.99959C13.334 8.15843 11.8414 6.66605 10.0004 6.66605C8.15926 6.66605 6.66688 8.15843 6.66688 9.99959C6.66688 11.8405 8.15926 13.3331 10.0004 13.3331C11.8414 13.3331 13.334 11.8405 13.334 9.99959Z" fill="#808080"/>
</svg>
